<svg width="100" height="100" viewBox="0 0 100 100" fill="none" xmlns="http://www.w3.org/2000/svg">
<path fill-rule="evenodd" clip-rule="evenodd" d="M47.6923 22.308C34.0976 22.308 23.0769 33.3287 23.0769 46.9234C23.0769 60.5181 34.0976 71.5388 47.6923 71.5388C61.287 71.5388 72.3077 60.5181 72.3077 46.9234C72.3077 33.3287 61.287 22.308 47.6923 22.308ZM21.5385 46.9234C21.5385 32.479 33.2479 20.7695 47.6923 20.7695C62.1367 20.7695 73.8461 32.479 73.8461 46.9234C73.8461 61.3678 62.1367 73.0772 47.6923 73.0772C33.2479 73.0772 21.5385 61.3678 21.5385 46.9234Z" fill="#EDFF00"/>
<path fill-rule="evenodd" clip-rule="evenodd" d="M31.5385 49.2302C31.5385 48.8053 31.8829 48.4609 32.3077 48.4609H63.077C63.5018 48.4609 63.8462 48.8053 63.8462 49.2302C63.8462 58.1517 56.6139 65.384 47.6923 65.384C38.7708 65.384 31.5385 58.1517 31.5385 49.2302ZM33.0968 49.9994C33.4968 57.7137 39.8785 63.8456 47.6923 63.8456C55.5062 63.8456 61.8878 57.7137 62.2878 49.9994H33.0968Z" fill="#EDFF00"/>
<circle cx="39.2308" cy="39.9988" r="3.07692" fill="#EDFF00"/>
<circle cx="56.1539" cy="39.9988" r="3.07692" fill="#EDFF00"/>
<path fill-rule="evenodd" clip-rule="evenodd" d="M84.0317 72.8517C84.7938 73.5914 84.812 74.8089 84.0723 75.571L70.6334 89.4172C70.2712 89.7903 69.7734 90.0009 69.2534 90.0009C68.7334 90.0009 68.2356 89.7903 67.8734 89.4172L60.5431 81.8648C59.8034 81.1026 59.8216 79.8851 60.5837 79.1454C61.3458 78.4057 62.5633 78.4239 63.303 79.186L69.2534 85.3167L81.3123 72.8923C82.0521 72.1302 83.2696 72.112 84.0317 72.8517Z" fill="#55CC00"/>
<path fill-rule="evenodd" clip-rule="evenodd" d="M50 25.3842C36.4053 25.3842 25.3846 36.4048 25.3846 49.9996C25.3846 63.5943 36.4053 74.6149 50 74.6149C63.5947 74.6149 74.6154 63.5943 74.6154 49.9996C74.6154 36.4048 63.5947 25.3842 50 25.3842ZM23.8462 49.9996C23.8462 35.5552 35.5556 23.8457 50 23.8457C64.4444 23.8457 76.1539 35.5552 76.1539 49.9996C76.1539 64.4439 64.4444 76.1534 50 76.1534C35.5556 76.1534 23.8462 64.4439 23.8462 49.9996Z" fill="#404040"/>
<path fill-rule="evenodd" clip-rule="evenodd" d="M33.8462 52.3083C33.8462 51.8835 34.1906 51.5391 34.6154 51.5391H65.3846C65.8095 51.5391 66.1539 51.8835 66.1539 52.3083C66.1539 61.2298 58.9215 68.4621 50 68.4621C41.0785 68.4621 33.8462 61.2298 33.8462 52.3083ZM35.4045 53.0775C35.8045 60.7918 42.1862 66.9237 50 66.9237C57.8138 66.9237 64.1955 60.7918 64.5955 53.0775H35.4045Z" fill="#404040"/>
<ellipse cx="41.5385" cy="43.0789" rx="3.07692" ry="3.07692" fill="#404040"/>
<ellipse cx="58.4616" cy="43.0789" rx="3.07692" ry="3.07692" fill="#404040"/>
<g style="mix-blend-mode:multiply">
<path fill-rule="evenodd" clip-rule="evenodd" d="M91.5385 91.5371H81.5385V89.9986H90V81.5371H91.5385V91.5371Z" fill="#EDFF00"/>
</g>
<g style="mix-blend-mode:multiply">
<path fill-rule="evenodd" clip-rule="evenodd" d="M8.46152 8.46094H18.4615V9.9994H9.99998V18.4609H8.46152V8.46094Z" fill="#EDFF00"/>
</g>
<g style="mix-blend-mode:multiply">
<path fill-rule="evenodd" clip-rule="evenodd" d="M91.5385 8.46094H81.5385V9.9994H90V18.4609H91.5385V8.46094Z" fill="#EDFF00"/>
</g>
<g style="mix-blend-mode:multiply">
<path fill-rule="evenodd" clip-rule="evenodd" d="M8.46152 91.5371H18.4615V89.9986H9.99998V81.5371H8.46152V91.5371Z" fill="#EDFF00"/>
</g>
<path fill-rule="evenodd" clip-rule="evenodd" d="M6.92307 93.0762H16.9231V91.5377H8.46153V83.0762H6.92307V93.0762Z" fill="#404040"/>
<path fill-rule="evenodd" clip-rule="evenodd" d="M93.0769 93.0762H83.0769V91.5377H91.5384V83.0762H93.0769V93.0762Z" fill="#404040"/>
<path fill-rule="evenodd" clip-rule="evenodd" d="M6.92307 6.92188H16.9231V8.46034H8.46153V16.9219H6.92307V6.92188Z" fill="#404040"/>
<path fill-rule="evenodd" clip-rule="evenodd" d="M93.0769 6.92188H83.0769V8.46034H91.5384V16.9219H93.0769V6.92188Z" fill="#404040"/>
</svg>
