<svg width="25" height="24" viewBox="0 0 25 24" fill="none" xmlns="http://www.w3.org/2000/svg">
<path fill-rule="evenodd" clip-rule="evenodd" d="M4.79289 4.29289C5.18342 3.90237 5.81658 3.90237 6.20711 4.29289L20.2071 18.2929C20.5976 18.6834 20.5976 19.3166 20.2071 19.7071C19.8166 20.0976 19.1834 20.0976 18.7929 19.7071L4.79289 5.70711C4.40237 5.31658 4.40237 4.68342 4.79289 4.29289Z" fill="#404040"/>
<path fill-rule="evenodd" clip-rule="evenodd" d="M20.2071 4.29289C20.5976 4.68342 20.5976 5.31658 20.2071 5.70711L6.20711 19.7071C5.81658 20.0976 5.18342 20.0976 4.79289 19.7071C4.40237 19.3166 4.40237 18.6834 4.79289 18.2929L18.7929 4.29289C19.1834 3.90237 19.8166 3.90237 20.2071 4.29289Z" fill="#404040"/>
</svg>
