<svg width="100" height="100" viewBox="0 0 100 100" fill="none" xmlns="http://www.w3.org/2000/svg">
<path fill-rule="evenodd" clip-rule="evenodd" d="M33.8258 30.946C34.1748 29.5582 34.9544 28.2788 36.3028 27.564C37.6526 26.8484 39.7268 26.6169 42.8339 27.6526C43.2369 27.7869 43.6725 27.5691 43.8069 27.1661C43.9412 26.7631 43.7234 26.3274 43.3204 26.1931C39.9659 25.0749 37.4247 25.228 35.5822 26.2047C33.7414 27.1805 32.7522 28.8969 32.3309 30.5824C32.3292 30.589 32.3277 30.5955 32.3262 30.6021L27.7108 51.3713C27.6187 51.786 27.8802 52.1969 28.2949 52.2891C28.7096 52.3812 29.1205 52.1197 29.2127 51.705L33.8258 30.946Z" fill="#EDFF00"/>
<path fill-rule="evenodd" clip-rule="evenodd" d="M72.3281 30.946C71.9791 29.5582 71.1995 28.2788 69.8511 27.564C68.5013 26.8484 66.4271 26.6169 63.32 27.6526C62.917 27.7869 62.4814 27.5691 62.347 27.1661C62.2127 26.7631 62.4305 26.3274 62.8335 26.1931C66.188 25.0749 68.7292 25.228 70.5717 26.2047C72.4125 27.1805 73.4017 28.8969 73.8231 30.5824C73.8247 30.589 73.8262 30.5955 73.8277 30.6021L78.4431 51.3713C78.5353 51.786 78.2738 52.1969 77.8591 52.2891C77.4443 52.3812 77.0334 52.1197 76.9413 51.705L72.3281 30.946Z" fill="#EDFF00"/>
<path fill-rule="evenodd" clip-rule="evenodd" d="M29.2308 51.9827V56.9833C29.2308 62.0644 33.2571 66.1549 38.1886 66.1549H40.273C45.2045 66.1549 49.2308 62.0644 49.2308 56.9833V51.9827C46.3401 50.3404 43.0508 49.2318 39.5782 49.2318H38.8834C35.4108 49.2318 32.1215 50.3404 29.2308 51.9827ZM28.0701 50.8773C31.2213 49.0145 34.9151 47.6934 38.8834 47.6934H39.5782C43.5465 47.6934 47.2403 49.0145 50.3915 50.8773C50.6256 51.0158 50.7693 51.2675 50.7693 51.5395V56.9833C50.7693 62.8824 46.0856 67.6934 40.273 67.6934H38.1886C32.3761 67.6934 27.6924 62.8824 27.6924 56.9833V51.5395C27.6924 51.2675 27.836 51.0158 28.0701 50.8773Z" fill="#EDFF00"/>
<path fill-rule="evenodd" clip-rule="evenodd" d="M76.9231 51.9827V56.9833C76.9231 62.0644 72.8968 66.1549 67.9653 66.1549H65.8809C60.9494 66.1549 56.9231 62.0644 56.9231 56.9833V51.9827C59.8138 50.3404 63.1031 49.2318 66.5757 49.2318H67.2705C70.7431 49.2318 74.0325 50.3404 76.9231 51.9827ZM78.0838 50.8773C74.9326 49.0145 71.2388 47.6934 67.2705 47.6934H66.5757C62.6074 47.6934 58.9136 49.0145 55.7624 50.8773C55.5283 51.0158 55.3847 51.2675 55.3847 51.5395V56.9833C55.3847 62.8824 60.0684 67.6934 65.8809 67.6934H67.9653C73.7779 67.6934 78.4616 62.8824 78.4616 56.9833V51.5395C78.4616 51.2675 78.3179 51.0158 78.0838 50.8773Z" fill="#EDFF00"/>
<path fill-rule="evenodd" clip-rule="evenodd" d="M53.077 51.5385C51.6906 51.5385 50.6852 52.0062 50.4267 52.1785L49.5733 50.8984C50.0841 50.5579 51.3864 50 53.077 50C54.7675 50 56.0698 50.5579 56.5806 50.8984L55.7272 52.1785C55.4687 52.0062 54.4633 51.5385 53.077 51.5385Z" fill="#EDFF00"/>
<path fill-rule="evenodd" clip-rule="evenodd" d="M31.4499 57.5172C31.6257 61.4689 34.7045 64.6157 38.4767 64.6157H39.9841C43.8693 64.6157 47.0189 61.2777 47.0189 57.1601V53.0772C44.8016 51.7179 42.2274 50.7695 39.4816 50.7695H38.9792C38.7078 50.7695 38.4381 50.7788 38.1702 50.7968L31.4499 57.5172Z" fill="#EDFF00"/>
<path fill-rule="evenodd" clip-rule="evenodd" d="M59.1422 57.5172C59.318 61.4689 62.3968 64.6157 66.169 64.6157H67.6764C71.5616 64.6157 74.7111 61.2777 74.7111 57.1601V53.0772C72.4939 51.7179 69.9197 50.7695 67.1739 50.7695H66.6714C66.4001 50.7695 66.1304 50.7788 65.8625 50.7968L59.1422 57.5172Z" fill="#EDFF00"/>
<path fill-rule="evenodd" clip-rule="evenodd" d="M30.7489 33.9985C31.0979 32.6098 31.8775 31.3295 33.2259 30.6142C34.5757 29.8982 36.6499 29.6665 39.7569 30.7029C40.16 30.8373 40.5956 30.6194 40.73 30.2161C40.8643 29.8128 40.6465 29.3769 40.2434 29.2424C36.889 28.1235 34.3478 28.2767 32.5053 29.2541C30.6645 30.2305 29.6753 31.948 29.2539 33.6347C29.2523 33.6412 29.2507 33.6478 29.2493 33.6544L24.6339 54.4372C24.5417 54.8522 24.8032 55.2633 25.2179 55.3556C25.6327 55.4478 26.0436 55.1861 26.1357 54.7711L30.7489 33.9985Z" fill="#404040"/>
<path fill-rule="evenodd" clip-rule="evenodd" d="M69.2512 33.9985C68.9022 32.6098 68.1226 31.3295 66.7742 30.6142C65.4244 29.8982 63.3502 29.6665 60.2431 30.7029C59.8401 30.8373 59.4044 30.6194 59.2701 30.2161C59.1358 29.8128 59.3536 29.3769 59.7566 29.2424C63.1111 28.1235 65.6523 28.2767 67.4948 29.2541C69.3356 30.2305 70.3248 31.948 70.7461 33.6347C70.7478 33.6412 70.7493 33.6478 70.7508 33.6544L75.3662 54.4372C75.4583 54.8522 75.1968 55.2633 74.7821 55.3556C74.3674 55.4478 73.9565 55.1861 73.8643 54.7711L69.2512 33.9985Z" fill="#404040"/>
<path fill-rule="evenodd" clip-rule="evenodd" d="M26.1539 55.048V60.0519C26.1539 65.1364 30.1801 69.2295 35.1117 69.2295H37.1961C42.1276 69.2295 46.1539 65.1364 46.1539 60.0519V55.048C43.2632 53.4047 39.9739 52.2953 36.5013 52.2953H35.8065C32.3338 52.2953 29.0445 53.4047 26.1539 55.048ZM24.9932 53.9419C28.1444 52.0778 31.8382 50.7559 35.8065 50.7559H36.5013C40.4696 50.7559 44.1634 52.0778 47.3146 53.9419C47.5487 54.0804 47.6923 54.3324 47.6923 54.6045V60.0519C47.6923 65.9549 43.0086 70.769 37.1961 70.769H35.1117C29.2991 70.769 24.6154 65.9549 24.6154 60.0519V54.6045C24.6154 54.3324 24.7591 54.0804 24.9932 53.9419Z" fill="#404040"/>
<path fill-rule="evenodd" clip-rule="evenodd" d="M73.8462 55.048V60.0519C73.8462 65.1364 69.8199 69.2295 64.8884 69.2295H62.804C57.8724 69.2295 53.8462 65.1364 53.8462 60.0519V55.048C56.7368 53.4047 60.0261 52.2953 63.4988 52.2953H64.1936C67.6662 52.2953 70.9555 53.4047 73.8462 55.048ZM75.0069 53.9419C71.8557 52.0778 68.1619 50.7559 64.1936 50.7559H63.4988C59.5305 50.7559 55.8367 52.0778 52.6855 53.9419C52.4514 54.0804 52.3077 54.3324 52.3077 54.6045V60.0519C52.3077 65.9549 56.9914 70.769 62.804 70.769H64.8884C70.7009 70.769 75.3846 65.9549 75.3846 60.0519V54.6045C75.3846 54.3324 75.241 54.0804 75.0069 53.9419Z" fill="#404040"/>
<path fill-rule="evenodd" clip-rule="evenodd" d="M50 54.6039C48.6137 54.6039 47.6083 55.072 47.3498 55.2444L46.4964 53.9635C47.0072 53.6227 48.3095 53.0645 50 53.0645C51.6906 53.0645 52.9929 53.6227 53.5037 53.9635L52.6503 55.2444C52.3918 55.072 51.3864 54.6039 50 54.6039Z" fill="#404040"/>
<path fill-rule="evenodd" clip-rule="evenodd" d="M28.3729 60.5861C28.5488 64.5404 31.6275 67.6892 35.3997 67.6892H36.9072C40.7923 67.6892 43.9419 64.349 43.9419 60.2287V56.1432C41.7247 54.783 39.1504 53.834 36.4047 53.834H35.9022C35.6308 53.834 35.3611 53.8433 35.0933 53.8613L28.3729 60.5861Z" fill="#404040"/>
<path fill-rule="evenodd" clip-rule="evenodd" d="M56.0652 60.5861C56.2411 64.5404 59.3199 67.6892 63.0921 67.6892H64.5995C68.4847 67.6892 71.6342 64.349 71.6342 60.2287V56.1432C69.417 54.783 66.8428 53.834 64.097 53.834H63.5945C63.3232 53.834 63.0535 53.8433 62.7856 53.8613L56.0652 60.5861Z" fill="#404040"/>
<path fill-rule="evenodd" clip-rule="evenodd" d="M80.9752 75.5915C81.7262 74.8405 81.7262 73.6229 80.9752 72.8718C80.2242 72.1208 79.0066 72.1208 78.2556 72.8718L72.6923 78.4351L67.1291 72.8718C66.3781 72.1208 65.1604 72.1208 64.4094 72.8718C63.6584 73.6229 63.6584 74.8405 64.4094 75.5915L69.9727 81.1547L64.4094 86.718C63.6584 87.469 63.6584 88.6866 64.4094 89.4376C65.1604 90.1887 66.3781 90.1887 67.1291 89.4376L72.6923 83.8744L78.2556 89.4376C79.0066 90.1887 80.2242 90.1887 80.9752 89.4376C81.7262 88.6866 81.7262 87.469 80.9752 86.718L75.412 81.1547L80.9752 75.5915Z" fill="#E71834"/>
</svg>
