<svg width="100" height="100" viewBox="0 0 100 100" fill="none" xmlns="http://www.w3.org/2000/svg">
<path fill-rule="evenodd" clip-rule="evenodd" d="M80.9752 75.5895C81.7262 74.8385 81.7262 73.6209 80.9752 72.8699C80.2242 72.1189 79.0065 72.1189 78.2555 72.8699L72.6923 78.4332L67.129 72.8699C66.378 72.1189 65.1604 72.1189 64.4094 72.8699C63.6584 73.6209 63.6584 74.8385 64.4094 75.5895L69.9726 81.1528L64.4094 86.7161C63.6584 87.4671 63.6584 88.6847 64.4094 89.4357C65.1604 90.1867 66.378 90.1867 67.129 89.4357L72.6923 83.8724L78.2555 89.4357C79.0065 90.1867 80.2242 90.1867 80.9752 89.4357C81.7262 88.6847 81.7262 87.4671 80.9752 86.7161L75.4119 81.1528L80.9752 75.5895Z" fill="#E71834"/>
<path fill-rule="evenodd" clip-rule="evenodd" d="M16.1539 47.4551C20 51.0055 32.4616 58.1063 51.5385 58.1063C70.6154 58.1063 83.077 51.0055 86.9231 47.4551C85 53.1611 74.6154 69.5183 51.5385 69.5183C28.4616 69.5183 18.0769 53.1611 16.1539 47.4551Z" fill="#EDFF00"/>
<path d="M32.0105 46.9921C32.0342 46.9967 32.0578 47.0025 32.0812 47.0095C37.4155 48.5933 43.9437 49.7301 51.5385 49.7301C59.1332 49.7301 65.6615 48.5933 70.9958 47.0095C71.0191 47.0025 71.0427 46.9967 71.0664 46.9921C69.3069 38.1811 66.1836 27.7049 63.8463 25.3931C60.8612 22.4406 58.611 24.3971 57.1677 25.6521C56.9373 25.8523 56.7275 26.0348 56.5386 26.1765C54.2309 27.9076 51.5383 27.7146 51.5383 27.7146C51.5383 27.7146 48.846 27.9076 46.5383 26.1765C46.3494 26.0348 46.1396 25.8523 45.9092 25.6521C44.4659 24.3971 42.2158 22.4406 39.2306 25.3931C36.8933 27.7049 33.77 38.1811 32.0105 46.9921Z" fill="#EDFF00"/>
<path fill-rule="evenodd" clip-rule="evenodd" d="M14.197 50.1309C14.4919 49.9378 14.8789 49.9711 15.1372 50.2119C18.8275 53.6531 31.0969 60.7653 50.0001 60.7653C68.9032 60.7653 81.1727 53.6531 84.8629 50.2119C85.1212 49.9711 85.5082 49.9378 85.8032 50.1309C86.0981 50.3241 86.2259 50.6946 86.1136 51.0311C84.1171 57.0152 73.4974 73.8474 50.0001 73.8474C26.5028 73.8474 15.883 57.0152 13.8865 51.0311C13.7743 50.6946 13.9021 50.3241 14.197 50.1309ZM16.5539 53.2902C20.1553 60.1527 30.3954 72.2933 50.0001 72.2933C69.6048 72.2933 79.8449 60.1527 83.4462 53.2902C77.8462 57.1441 66.283 62.3194 50.0001 62.3194C33.7171 62.3194 22.154 57.1441 16.5539 53.2902Z" fill="#404040"/>
<path fill-rule="evenodd" clip-rule="evenodd" d="M41.4245 27.786C40.6187 27.584 39.5748 27.7069 38.2332 29.0473C37.924 29.3562 37.5536 29.8975 37.1404 30.6814C36.7333 31.454 36.3078 32.4168 35.875 33.5304C35.0095 35.757 34.1316 38.5418 33.3232 41.518C31.78 47.1999 30.5088 53.5112 30.0604 57.8692C30.4032 57.9752 30.7512 58.0794 31.1041 58.1816L32.3912 58.5388C32.3926 58.5392 32.3939 58.5395 32.3952 58.5399C37.3647 59.8608 43.2627 60.7645 49.9999 60.7645C56.7371 60.7645 62.6354 59.8608 67.6049 58.5399C67.6062 58.5395 67.6075 58.5392 67.6089 58.5388L68.896 58.1815C69.249 58.0794 69.5969 57.9752 69.9397 57.8692C69.4914 53.5112 68.2201 47.1999 66.6769 41.518C65.8686 38.5418 64.9906 35.757 64.1252 33.5304C63.6923 32.4168 63.2668 31.454 62.8597 30.6814C62.4465 29.8975 62.0761 29.3562 61.767 29.0473C60.4253 27.7069 59.3814 27.584 58.5757 27.786C57.669 28.0132 56.8813 28.6865 56.134 29.3428L56.1201 29.3551C55.9005 29.5479 55.6731 29.7477 55.4618 29.9078C54.1829 30.8769 52.808 31.3004 51.7672 31.4843C51.2447 31.5766 50.7991 31.6098 50.4806 31.6198C50.321 31.6248 50.1926 31.624 50.1015 31.6217C50.0596 31.6207 50.0256 31.6194 49.9999 31.6182C49.9743 31.6194 49.9402 31.6207 49.8984 31.6217C49.8073 31.624 49.6788 31.6248 49.5193 31.6198C49.2008 31.6098 48.7553 31.5766 48.2328 31.4843C47.1921 31.3004 45.8172 30.8769 44.5383 29.9078C44.327 29.7476 44.0996 29.5479 43.88 29.355L43.8661 29.3428C43.1189 28.6865 42.3311 28.0132 41.4245 27.786ZM50.0544 30.0648L50.0683 30.0656C50.0825 30.0663 50.1063 30.0673 50.1388 30.0681C50.2039 30.0697 50.3039 30.0704 50.4328 30.0664C50.6913 30.0583 51.0631 30.031 51.5022 29.9534C52.3846 29.7975 53.5098 29.4442 54.5386 28.6646C54.7007 28.5418 54.8877 28.378 55.1246 28.17C55.1393 28.1571 55.1542 28.144 55.1693 28.1307C55.8657 27.5187 56.9078 26.6028 58.2052 26.2776C59.6316 25.9201 61.2053 26.3003 62.8488 27.9424C63.3228 28.4159 63.7797 29.1201 64.2177 29.9511C64.6617 30.7936 65.1113 31.8153 65.5572 32.9624C66.4493 35.2574 67.3436 38.0989 68.1605 41.1068C69.7927 47.1162 71.1359 53.8645 71.5317 58.3541C71.5637 58.7169 71.342 59.0534 70.9983 59.1637C70.4503 59.3395 69.8893 59.5107 69.3155 59.6768L69.3075 59.6791L68.0005 60.0418C62.9071 61.396 56.876 62.3186 49.9999 62.3186C43.1239 62.3186 37.093 61.396 31.9996 60.0417L31.9916 60.0396L30.6846 59.6768C30.1108 59.5108 29.5498 59.3395 29.0018 59.1637C28.6582 59.0535 28.4364 58.7169 28.4684 58.3541C28.8642 53.8645 30.2074 47.1162 31.8396 41.1068C32.6565 38.0989 33.5509 35.2574 34.4429 32.9624C34.8888 31.8153 35.3384 30.7936 35.7825 29.9511C36.2205 29.1201 36.6773 28.4159 37.1513 27.9424C38.7948 26.3003 40.3685 25.9201 41.7949 26.2776C43.0924 26.6028 44.1344 27.5187 44.8308 28.1307C44.8459 28.144 44.8608 28.1571 44.8756 28.17C45.1124 28.378 45.2994 28.5418 45.4615 28.6646C46.4903 29.4442 47.6155 29.7975 48.4978 29.9534C48.9369 30.031 49.3087 30.0583 49.5671 30.0664C49.696 30.0704 49.796 30.0697 49.8611 30.0681C49.8936 30.0673 49.9174 30.0663 49.9316 30.0656L49.9454 30.0648C49.9812 30.0623 50.017 30.0622 50.0528 30.0647C50.0532 30.0648 50.054 30.0648 50.0544 30.0648C50.0545 30.0649 50.0543 30.0648 50.0544 30.0648Z" fill="#404040"/>
<path fill-rule="evenodd" clip-rule="evenodd" d="M29.9244 50.4118C30.11 50.2979 30.3346 50.2685 30.5427 50.331C35.877 51.9309 42.4053 53.0792 50 53.0792C57.5948 53.0792 64.123 51.9309 69.4573 50.331C69.6655 50.2685 69.8901 50.2979 70.0756 50.4118C70.2612 50.5256 70.3905 50.7134 70.4316 50.9288C70.9573 53.6839 71.3472 56.2609 71.5317 58.3542C71.5637 58.717 71.3419 59.0535 70.9983 59.1637C70.4501 59.3396 69.8887 59.5109 69.315 59.677L69.3069 59.6794L68.0012 60.0416C62.9078 61.396 56.8767 62.3186 50 62.3186C43.1234 62.3186 37.0923 61.3959 31.9989 60.0416L31.9909 60.0394L30.685 59.6771C30.1113 59.5109 29.55 59.3396 29.0018 59.1637C28.6581 59.0535 28.4364 58.717 28.4684 58.3542C28.6529 56.2609 29.0428 53.6839 29.5685 50.9288C29.6096 50.7134 29.7389 50.5256 29.9244 50.4118ZM30.9227 52.0599C30.532 54.1947 30.2341 56.1808 30.0604 57.8693C30.4035 57.9753 30.7517 58.0796 31.1048 58.1819L32.3945 58.5397C37.364 59.8608 43.2622 60.7645 50 60.7645C56.7379 60.7645 62.636 59.8608 67.6056 58.5397C67.6069 58.5394 67.6082 58.539 67.6096 58.5386L68.8953 58.1819C69.2484 58.0796 69.5966 57.9753 69.9397 57.8693C69.7659 56.1808 69.4681 54.1947 69.0774 52.0599C63.7641 53.5742 57.3673 54.6333 50 54.6333C42.6328 54.6333 36.2359 53.5742 30.9227 52.0599Z" fill="#404040"/>
</svg>
