<svg width="100" height="100" viewBox="0 0 100 100" fill="none" xmlns="http://www.w3.org/2000/svg">
<g style="mix-blend-mode:multiply">
<path d="M51.5384 23.8438C40.28 23.8438 32.2946 32.8882 32.3077 42.8328C32.3073 47.3963 34.0009 51.7244 37.0718 55.152C39.8782 58.2873 42.8226 64.5087 43.0589 66.1514H59.982C60.2182 64.5087 63.1987 58.2873 66.0051 55.152C69.076 51.7244 70.7696 47.3963 70.7692 42.8328C70.7823 32.8882 62.7969 23.8438 51.5384 23.8438Z" fill="#EDFF00"/>
</g>
<path fill-rule="evenodd" clip-rule="evenodd" d="M18.5907 23.4168C18.8264 23.0634 19.3039 22.9678 19.6574 23.2035L26.5805 27.8189C26.934 28.0545 27.0295 28.5321 26.7939 28.8856C26.5582 29.2391 26.0806 29.3346 25.7271 29.099L18.804 24.4836C18.4506 24.2479 18.355 23.7703 18.5907 23.4168Z" fill="#EDFF00"/>
<path fill-rule="evenodd" clip-rule="evenodd" d="M82.9231 23.382C82.6682 23.0421 82.186 22.9732 81.8462 23.2281L75.6923 27.8435C75.3524 28.0984 75.2836 28.5805 75.5385 28.9204C75.7934 29.2603 76.2755 29.3292 76.6154 29.0743L82.7692 24.4589C83.1091 24.204 83.178 23.7218 82.9231 23.382Z" fill="#EDFF00"/>
<path fill-rule="evenodd" clip-rule="evenodd" d="M18.5278 59.541C18.7004 59.9293 19.155 60.1041 19.5432 59.9316L26.4662 56.8546C26.8545 56.6821 27.0293 56.2275 26.8568 55.8393C26.6842 55.4511 26.2296 55.2762 25.8414 55.4488L18.9183 58.5257C18.5301 58.6982 18.3553 59.1528 18.5278 59.541Z" fill="#EDFF00"/>
<path fill-rule="evenodd" clip-rule="evenodd" d="M82.9957 59.5727C82.8057 59.9526 82.3437 60.1067 81.9637 59.9167L75.8098 56.8397C75.4298 56.6498 75.2758 56.1877 75.4658 55.8077C75.6558 55.4277 76.1179 55.2737 76.4979 55.4637L82.6517 58.5406C83.0317 58.7306 83.1857 59.1927 82.9957 59.5727Z" fill="#EDFF00"/>
<path fill-rule="evenodd" clip-rule="evenodd" d="M15.3846 42.3063C15.3846 41.8815 15.729 41.5371 16.1538 41.5371H23.0769C23.5017 41.5371 23.8461 41.8815 23.8461 42.3063C23.8461 42.7312 23.5017 43.0756 23.0769 43.0756H16.1538C15.729 43.0756 15.3846 42.7312 15.3846 42.3063Z" fill="#EDFF00"/>
<path fill-rule="evenodd" clip-rule="evenodd" d="M86.9231 42.3063C86.9231 41.8815 86.5787 41.5371 86.1538 41.5371H78.4615C78.0367 41.5371 77.6923 41.8815 77.6923 42.3063C77.6923 42.7312 78.0367 43.0756 78.4615 43.0756H86.1538C86.5787 43.0756 86.9231 42.7312 86.9231 42.3063Z" fill="#EDFF00"/>
<g style="mix-blend-mode:multiply">
<path fill-rule="evenodd" clip-rule="evenodd" d="M49.2307 22.306C38.4179 22.306 30.7566 30.9848 30.7692 40.5248L30.7692 40.5259C30.7689 44.8947 32.389 49.0413 35.337 52.3317C36.8032 53.9698 38.276 56.3749 39.4043 58.5503C39.9715 59.6439 40.4595 60.6946 40.8227 61.5825C41.1765 62.4475 41.4387 63.2216 41.5126 63.735L41.5204 63.7895V69.9977C41.5205 70.0916 41.5397 70.2596 41.5831 70.4385C41.604 70.5244 41.6277 70.6014 41.6517 70.6639C41.6636 70.6948 41.6745 70.7192 41.6836 70.7374C41.688 70.7464 41.6917 70.7532 41.6945 70.7579C41.6972 70.7627 41.6987 70.7648 41.6985 70.7646L41.7149 70.7885L44.579 75.7429C44.6657 75.8642 44.7811 75.9652 44.9171 76.0368C45.0676 76.116 45.2112 76.1521 45.3672 76.1522H53.0583C53.2302 76.1521 53.408 76.1086 53.5444 76.0368C53.6804 75.9652 53.7958 75.8642 53.8824 75.743L56.7466 70.7885L56.7627 70.7648C56.7644 70.7617 56.7777 70.7383 56.7962 70.6856C56.8166 70.6274 56.8366 70.5533 56.8539 70.4674C56.8893 70.2923 56.9049 70.1131 56.905 69.9977V63.7895L56.9129 63.735C56.9869 63.22 57.2523 62.4447 57.6094 61.5801C57.9761 60.6922 58.4687 59.6414 59.0403 58.5481C60.1776 56.3728 61.6589 53.969 63.1242 52.332C66.0723 49.0416 67.6926 44.8947 67.6923 40.5259V40.5248C67.7049 30.9848 60.0436 22.306 49.2307 22.306ZM29.2308 40.5263C29.2174 30.1773 37.5269 20.7676 49.2307 20.7676C60.9348 20.7676 69.2444 30.1777 69.2307 40.5268C69.2309 45.2845 67.464 49.7936 64.2705 53.3581C62.9294 54.8564 61.5173 57.131 60.4037 59.2609C59.8499 60.3201 59.3777 61.3287 59.0314 62.1673C58.6934 62.9857 58.4999 63.5846 58.4435 63.9052V69.9983C58.4433 70.2203 58.4166 70.5019 58.3619 70.7724C58.313 71.014 58.2245 71.3385 58.0523 71.6039L55.1848 76.5641L55.1693 76.5869C54.9381 76.928 54.6257 77.2062 54.2609 77.3982C53.8895 77.5937 53.4639 77.6903 53.0595 77.6907H45.3666C44.9462 77.6903 44.5579 77.5863 44.2005 77.3982C43.8358 77.2062 43.5233 76.928 43.2922 76.5869L43.2767 76.5641L40.4094 71.6043C40.2466 71.3543 40.1474 71.0459 40.088 70.8013C40.0233 70.5345 39.9821 70.2425 39.9819 69.999V63.9051C39.9255 63.583 39.7334 62.983 39.3987 62.1649C39.0557 61.3262 38.5879 60.3177 38.0386 59.2586C36.934 57.1288 35.5311 54.8553 34.1909 53.3581C30.9974 49.7935 29.2305 45.2842 29.2308 40.5263Z" fill="#404040"/>
</g>
<g style="mix-blend-mode:multiply">
<path fill-rule="evenodd" clip-rule="evenodd" d="M36.1538 39.9994C36.145 32.7714 41.5294 26.1523 49.2307 26.1523C49.6556 26.1523 50 26.4967 50 26.9216C50 27.3464 49.6556 27.6908 49.2307 27.6908C42.5212 27.6908 37.6843 33.4713 37.6923 39.9976C37.6928 40.4224 37.3488 40.7672 36.924 40.7677C36.4992 40.7682 36.1543 40.4243 36.1538 39.9994Z" fill="#404040"/>
</g>
<path fill-rule="evenodd" clip-rule="evenodd" d="M57.6923 65.3822H40.7692V63.8438L57.6923 63.8437V65.3822Z" fill="#404040"/>
<path fill-rule="evenodd" clip-rule="evenodd" d="M57.6923 70.767L40.7692 70.767L40.7692 69.2285L57.6923 69.2285L57.6923 70.767Z" fill="#404040"/>
<path fill-rule="evenodd" clip-rule="evenodd" d="M16.283 21.1102C16.5187 20.7567 16.9963 20.6612 17.3498 20.8969L24.2728 25.5122C24.6263 25.7479 24.7218 26.2255 24.4862 26.579C24.2505 26.9325 23.7729 27.028 23.4194 26.7923L16.4964 22.1769C16.1429 21.9413 16.0474 21.4637 16.283 21.1102Z" fill="#404040"/>
<path fill-rule="evenodd" clip-rule="evenodd" d="M80.6154 21.0753C80.3605 20.7354 79.8783 20.6666 79.5384 20.9215L73.3846 25.5369C73.0447 25.7918 72.9758 26.2739 73.2307 26.6138C73.4856 26.9536 73.9678 27.0225 74.3077 26.7676L80.4615 22.1522C80.8014 21.8973 80.8703 21.4152 80.6154 21.0753Z" fill="#404040"/>
<path fill-rule="evenodd" clip-rule="evenodd" d="M16.2201 57.2324C16.3927 57.6207 16.8472 57.7955 17.2355 57.623L24.1585 54.546C24.5468 54.3735 24.7216 53.9189 24.5491 53.5307C24.3765 53.1425 23.9219 52.9676 23.5337 53.1402L16.6106 56.2171C16.2224 56.3896 16.0476 56.8442 16.2201 57.2324Z" fill="#404040"/>
<path fill-rule="evenodd" clip-rule="evenodd" d="M80.688 57.2641C80.498 57.644 80.036 57.7981 79.656 57.6081L73.5021 54.5312C73.1221 54.3412 72.9681 53.8791 73.1581 53.4991C73.3481 53.1191 73.8102 52.9651 74.1901 53.1551L80.344 56.232C80.724 56.422 80.878 56.8841 80.688 57.2641Z" fill="#404040"/>
<path fill-rule="evenodd" clip-rule="evenodd" d="M13.0769 39.9977C13.0769 39.5729 13.4213 39.2285 13.8461 39.2285H20.7692C21.194 39.2285 21.5384 39.5729 21.5384 39.9977C21.5384 40.4226 21.194 40.767 20.7692 40.767H13.8461C13.4213 40.767 13.0769 40.4226 13.0769 39.9977Z" fill="#404040"/>
<path fill-rule="evenodd" clip-rule="evenodd" d="M84.6154 39.9977C84.6154 39.5729 84.271 39.2285 83.8461 39.2285H76.1538C75.729 39.2285 75.3846 39.5729 75.3846 39.9977C75.3846 40.4226 75.729 40.767 76.1538 40.767H83.8461C84.271 40.767 84.6154 40.4226 84.6154 39.9977Z" fill="#404040"/>
<path fill-rule="evenodd" clip-rule="evenodd" d="M84.0317 72.8498C84.7938 73.5895 84.812 74.807 84.0722 75.5691L70.6333 89.4152C70.2712 89.7884 69.7734 89.9989 69.2534 89.9989C68.7334 89.9989 68.2356 89.7884 67.8734 89.4152L60.5431 81.8628C59.8034 81.1007 59.8215 79.8832 60.5837 79.1435C61.3458 78.4037 62.5633 78.4219 63.303 79.184L69.2534 85.3147L81.3123 72.8903C82.052 72.1282 83.2695 72.11 84.0317 72.8498Z" fill="#55CC00"/>
</svg>
