<svg width="130" height="131" viewBox="0 0 130 131" fill="none" xmlns="http://www.w3.org/2000/svg">
<path fill-rule="evenodd" clip-rule="evenodd" d="M66 36.5C66 35.9477 66.4477 35.5 67 35.5H68C68.5523 35.5 69 35.9477 69 36.5C69 37.0523 68.5523 37.5 68 37.5H67C66.4477 37.5 66 37.0523 66 36.5Z" fill="#404040"/>
<path fill-rule="evenodd" clip-rule="evenodd" d="M54 98.5C54 97.9477 54.4477 97.5 55 97.5H63C63.5523 97.5 64 97.9477 64 98.5C64 99.0523 63.5523 99.5 63 99.5H55C54.4477 99.5 54 99.0523 54 98.5Z" fill="#404040"/>
<path fill-rule="evenodd" clip-rule="evenodd" d="M54 36.5C54 35.9477 54.4477 35.5 55 35.5H63C63.5523 35.5 64 35.9477 64 36.5C64 37.0523 63.5523 37.5 63 37.5H55C54.4477 37.5 54 37.0523 54 36.5Z" fill="#404040"/>
<path d="M70.6213 63.1842C70.6213 63.5621 70.315 63.8684 69.9371 63.8684C69.5592 63.8684 69.2529 63.5621 69.2529 63.1842C69.2529 62.8063 69.5592 62.5 69.9371 62.5C70.315 62.5 70.6213 62.8063 70.6213 63.1842Z" fill="#404040"/>
<path fill-rule="evenodd" clip-rule="evenodd" d="M55.8879 64.253C54.1473 64.253 52.7364 65.664 52.7364 67.4045C52.7364 69.1451 54.1473 70.5561 55.8879 70.5561C57.6284 70.5561 59.0394 69.1451 59.0394 67.4045C59.0394 65.664 57.6284 64.253 55.8879 64.253ZM54.1152 67.4045C54.1152 66.4255 54.9088 65.6318 55.8879 65.6318C56.8669 65.6318 57.6606 66.4255 57.6606 67.4045C57.6606 68.3836 56.8669 69.1773 55.8879 69.1773C54.9088 69.1773 54.1152 68.3836 54.1152 67.4045Z" fill="#404040"/>
<path d="M60.4848 64.7554C60.3163 64.414 59.9029 64.2739 59.5615 64.4424C59.2201 64.611 59.08 65.0244 59.2485 65.3658L61.553 70.034C61.6688 70.2685 61.9073 70.4173 62.1689 70.4182C62.4304 70.4191 62.6699 70.2719 62.7873 70.0381L65.1312 65.37C65.3021 65.0297 65.1648 64.6154 64.8245 64.4445C64.4842 64.2737 64.0699 64.411 63.8991 64.7513L62.1764 68.182L60.4848 64.7554Z" fill="#404040"/>
<path d="M47.3788 67.3652C47.3788 67.1199 47.4813 66.6895 47.7437 66.3351C47.9849 66.0094 48.355 65.75 48.9545 65.75C49.5925 65.75 49.983 65.9935 50.2267 66.2893C50.4884 66.607 50.6091 67.0228 50.6091 67.3652V69.7288C50.6091 70.1095 50.9177 70.4182 51.2985 70.4182C51.6792 70.4182 51.9879 70.1095 51.9879 69.7288V67.3652C51.9879 66.7423 51.7796 66.0059 51.2909 65.4126C50.7841 64.7975 50.0026 64.3712 48.9545 64.3712C47.868 64.3712 47.1056 64.88 46.6357 65.5145C46.1871 66.1203 46 66.8423 46 67.3652V69.7288C46 70.1095 46.3087 70.4182 46.6894 70.4182C47.0701 70.4182 47.3788 70.1095 47.3788 69.7288V67.3652Z" fill="#404040"/>
<path d="M67.3909 65.0409C67.3909 64.6602 67.0823 64.3515 66.7015 64.3515C66.3208 64.3515 66.0121 64.6602 66.0121 65.0409V67.4045C66.0121 68.0274 66.2204 68.7638 66.7091 69.3571C67.2159 69.9722 67.9974 70.3985 69.0455 70.3985C70.132 70.3985 70.8944 69.8897 71.3643 69.2551C71.8129 68.6493 72 67.9274 72 67.4045V65.0409C72 64.6602 71.6913 64.3515 71.3106 64.3515C70.9299 64.3515 70.6212 64.6602 70.6212 65.0409V67.4045C70.6212 67.6498 70.5187 68.0802 70.2563 68.4346C70.0151 68.7603 69.645 69.0197 69.0455 69.0197C68.4075 69.0197 68.017 68.7762 67.7733 68.4804C67.5116 68.1627 67.3909 67.7469 67.3909 67.4045V65.0409Z" fill="#404040"/>
<path d="M68.7596 63.1842C68.7596 63.5621 68.4533 63.8684 68.0754 63.8684C67.6975 63.8684 67.3912 63.5621 67.3912 63.1842C67.3912 62.8063 67.6975 62.5 68.0754 62.5C68.4533 62.5 68.7596 62.8063 68.7596 63.1842Z" fill="#404040"/>
<path fill-rule="evenodd" clip-rule="evenodd" d="M44 41.5C42.8954 41.5 42 42.3954 42 43.5V91.5C42 92.6046 42.8954 93.5 44 93.5H72.1994C71.8755 92.8664 71.6113 92.1973 71.4141 91.5H44V43.5L74 43.5V80.9501C74.5971 80.3176 75.2684 79.7559 76 79.2789V43.5C76 42.3954 75.1046 41.5 74 41.5H44Z" fill="#404040"/>
<path fill-rule="evenodd" clip-rule="evenodd" d="M82 78.5C76.4772 78.5 72 82.9772 72 88.5C72 94.0228 76.4772 98.5 82 98.5C87.5228 98.5 92 94.0228 92 88.5C92 82.9772 87.5228 78.5 82 78.5ZM70 88.5C70 81.8726 75.3726 76.5 82 76.5C88.6274 76.5 94 81.8726 94 88.5C94 95.1274 88.6274 100.5 82 100.5C75.3726 100.5 70 95.1274 70 88.5Z" fill="#404040"/>
<path fill-rule="evenodd" clip-rule="evenodd" d="M44 29.5C40.6863 29.5 38 32.1863 38 35.5V99.5C38 102.814 40.6863 105.5 44 105.5H74C77.3137 105.5 80 102.814 80 99.5V99.3186C79.3085 99.1916 78.6397 98.9999 78 98.7501V99.5C78 101.709 76.2091 103.5 74 103.5H44C41.7909 103.5 40 101.709 40 99.5V35.5C40 33.2909 41.7909 31.5 44 31.5H74C76.2091 31.5 78 33.2909 78 35.5V78.2499C78.6397 78.0001 79.3085 77.8084 80 77.6814V35.5C80 32.1863 77.3137 29.5 74 29.5H44Z" fill="#404040"/>
<path fill-rule="evenodd" clip-rule="evenodd" d="M87.7071 84.7929C88.0976 85.1834 88.0976 85.8166 87.7071 86.2071L81.2071 92.7071C80.8166 93.0976 80.1834 93.0976 79.7929 92.7071L76.2929 89.2071C75.9024 88.8166 75.9024 88.1834 76.2929 87.7929C76.6834 87.4024 77.3166 87.4024 77.7071 87.7929L80.5 90.5858L86.2929 84.7929C86.6834 84.4024 87.3166 84.4024 87.7071 84.7929Z" fill="#404040"/>
<g style="mix-blend-mode:multiply">
<path fill-rule="evenodd" clip-rule="evenodd" d="M36 32.5C36 29.1863 38.6863 26.5 42 26.5H72C75.3137 26.5 78 29.1863 78 32.5V78.2499C75.9714 79.0421 74.2356 80.4192 73 82.1738V40.5C73 39.9477 72.5523 39.5 72 39.5H42C41.4477 39.5 41 39.9477 41 40.5V88.5C41 89.0523 41.4477 89.5 42 89.5H71.0448C71.4131 93.587 74.0169 97.0294 77.624 98.5952C76.7741 100.876 74.5767 102.5 72 102.5H42C38.6863 102.5 36 99.8137 36 96.5V32.5Z" fill="#EDFF00"/>
</g>
</svg>
